<svg width="24" height="24" viewBox="0 0 24 24" fill="none" xmlns="http://www.w3.org/2000/svg">
<path opacity="0.4" d="M20.6201 8.45049C19.5701 3.83049 15.5401 1.75049 12.0001 1.75049C12.0001 1.75049 12.0001 1.75049 11.9901 1.75049C8.46009 1.75049 4.4201 3.82049 3.3701 8.44049C2.2001 13.6005 5.3601 17.9705 8.2201 20.7205C9.28009 21.7405 10.6401 22.2505 12.0001 22.2505C13.3601 22.2505 14.7201 21.7405 15.7701 20.7205C18.6301 17.9705 21.7901 13.6105 20.6201 8.45049Z" fill="#071437" fill-opacity="0.6"/>
<path d="M11.9996 13.4592C13.7393 13.4592 15.1496 12.0489 15.1496 10.3092C15.1496 8.56948 13.7393 7.15918 11.9996 7.15918C10.2599 7.15918 8.84961 8.56948 8.84961 10.3092C8.84961 12.0489 10.2599 13.4592 11.9996 13.4592Z" fill="#071437" fill-opacity="0.6"/>
</svg>
