<svg width="36" height="37" viewBox="0 0 36 37" fill="none" xmlns="http://www.w3.org/2000/svg">
<path opacity="0.4" d="M23.22 4.72754H11.28C6.105 4.72754 3 7.81754 3 13.0075V24.9325C3 30.1375 6.105 33.2275 11.28 33.2275H23.205C28.395 33.2275 31.485 30.1375 31.485 24.9475V13.0075C31.5 7.81754 28.395 4.72754 23.22 4.72754Z" fill="#007C85"/>
<path d="M31.5312 4.69698C28.8462 1.99698 26.2212 1.93698 23.4612 4.69698L21.7662 6.37698C21.6162 6.52698 21.5712 6.73698 21.6312 6.93198C22.6812 10.607 25.6212 13.547 29.2962 14.597C29.3412 14.612 29.4162 14.612 29.4612 14.612C29.6112 14.612 29.7612 14.552 29.8662 14.447L31.5312 12.767C32.8962 11.402 33.5712 10.097 33.5712 8.76198C33.5712 7.41198 32.8962 6.07698 31.5312 4.69698Z" fill="#007C85"/>
<path d="M26.7897 15.8573C26.3847 15.6623 25.9947 15.4673 25.6347 15.2423C25.3347 15.0623 25.0347 14.8673 24.7497 14.6573C24.5097 14.5073 24.2397 14.2823 23.9697 14.0573C23.9397 14.0423 23.8497 13.9673 23.7297 13.8473C23.2647 13.4723 22.7697 12.9623 22.3047 12.4073C22.2747 12.3773 22.1847 12.2873 22.1097 12.1523C21.9597 11.9873 21.7347 11.7023 21.5397 11.3873C21.3747 11.1773 21.1797 10.8773 20.9997 10.5623C20.7747 10.1873 20.5797 9.8123 20.3997 9.4223C20.2047 9.0023 20.0547 8.6123 19.9197 8.2373L11.8497 16.3073C11.3247 16.8323 10.8147 17.8223 10.7097 18.5573L10.0647 23.0273C9.92966 23.9723 10.1847 24.8573 10.7697 25.4423C11.2647 25.9373 11.9397 26.1923 12.6897 26.1923C12.8547 26.1923 13.0197 26.1773 13.1847 26.1623L17.6397 25.5323C18.3747 25.4273 19.3647 24.9323 19.8897 24.3923L27.9597 16.3223C27.5847 16.2023 27.2097 16.0373 26.7897 15.8573Z" fill="#007C85"/>
</svg>
