<svg width="24" height="24" viewBox="0 0 24 24" fill="none" xmlns="http://www.w3.org/2000/svg">
<path opacity="0.4" d="M12 20.0005C16.4183 20.0005 20 16.4188 20 12.0005C20 7.58221 16.4183 4.00049 12 4.00049C7.58172 4.00049 4 7.58221 4 12.0005C4 16.4188 7.58172 20.0005 12 20.0005Z" fill="#071437" fill-opacity="0.6"/>
<path d="M11.9999 15.1194C13.723 15.1194 15.1199 13.7225 15.1199 11.9994C15.1199 10.2763 13.723 8.87939 11.9999 8.87939C10.2768 8.87939 8.87988 10.2763 8.87988 11.9994C8.87988 13.7225 10.2768 15.1194 11.9999 15.1194Z" fill="#071437" fill-opacity="0.6"/>
<path d="M12.75 1.99951V4.03951H12.74C12.5 4.00951 12.25 3.99951 12 3.99951C11.75 3.99951 11.5 4.00951 11.26 4.03951H11.25V1.99951C11.25 1.58951 11.59 1.24951 12 1.24951C12.41 1.24951 12.75 1.58951 12.75 1.99951Z" fill="#071437" fill-opacity="0.6"/>
<path d="M4 12C4 12.25 4.01 12.51 4.04 12.75H2C1.59 12.75 1.25 12.41 1.25 12C1.25 11.59 1.59 11.25 2 11.25H4.04C4.01 11.49 4 11.75 4 12Z" fill="#071437" fill-opacity="0.6"/>
<path d="M12.75 19.9604V22.0005C12.75 22.4105 12.41 22.7505 12 22.7505C11.59 22.7505 11.25 22.4105 11.25 22.0005V19.9604H11.26C11.5 19.9904 11.75 20.0005 12 20.0005C12.25 20.0005 12.5 19.9904 12.74 19.9604H12.75Z" fill="#071437" fill-opacity="0.6"/>
<path d="M22.75 12C22.75 12.41 22.41 12.75 22 12.75H19.96C19.99 12.51 20 12.25 20 12C20 11.75 19.99 11.49 19.96 11.25H22C22.41 11.25 22.75 11.59 22.75 12Z" fill="#071437" fill-opacity="0.6"/>
</svg>
