<svg width="32" height="32" viewBox="0 0 32 32" fill="none" xmlns="http://www.w3.org/2000/svg">
<circle cx="16" cy="16" r="16" fill="#007C85"/>
<path d="M14.8253 22V14.5432H16.8934V22H14.8253ZM15.8642 13.582C15.5567 13.582 15.293 13.4801 15.0729 13.2762C14.856 13.069 14.7476 12.8215 14.7476 12.5334C14.7476 12.2486 14.856 12.0043 15.0729 11.8004C15.293 11.5932 15.5567 11.4897 15.8642 11.4897C16.1717 11.4897 16.4338 11.5932 16.6506 11.8004C16.8707 12.0043 16.9808 12.2486 16.9808 12.5334C16.9808 12.8215 16.8707 13.069 16.6506 13.2762C16.4338 13.4801 16.1717 13.582 15.8642 13.582Z" fill="white"/>
</svg>
