<svg width="23" height="23" viewBox="0 0 23 23" fill="none" xmlns="http://www.w3.org/2000/svg">
<path opacity="0.4" d="M15.5157 1.91748H7.49449C3.99658 1.91748 1.91699 3.99706 1.91699 7.4854V15.5066C1.91699 18.995 3.99658 21.0746 7.48491 21.0746H15.5062C18.9945 21.0746 21.0741 18.995 21.0741 15.5066V7.4854C21.0837 3.99706 19.0041 1.91748 15.5157 1.91748Z" fill="#071437" fill-opacity="0.6"/>
<path d="M16.6262 8.67382L14.3837 15.8996C13.847 17.6151 11.4416 17.6438 10.8762 15.938L10.2054 13.9542C10.0233 13.408 9.59204 12.9671 9.04579 12.7946L7.05245 12.1238C5.3562 11.5584 5.38495 9.13381 7.10037 8.61631L14.3262 6.36423C15.7445 5.93298 17.0766 7.26507 16.6262 8.67382Z" fill="#071437" fill-opacity="0.6"/>
</svg>
